<svg id="Layer_1" data-name="Layer 1" xmlns="http://www.w3.org/2000/svg" viewBox="0 0 60.37 41.11">
  <defs>
    <style>
      .cls-1, .cls-2 {
        fill: none;
        stroke: #f6b221;
        stroke-miterlimit: 10;
      }

      .cls-2 {
        stroke-linecap: round;
      }
    </style>
  </defs>
  <title>cassette</title>
  <path id="icoCassette-outerRect" class="cls-1" d="M58,40.61H2.32A1.82,1.82,0,0,1,.5,38.78V2.32A1.82,1.82,0,0,1,2.32.5H58a1.82,1.82,0,0,1,1.82,1.82V38.78A1.82,1.82,0,0,1,58,40.61Z"/>
  <path id="icoCassette-btmTrap" class="cls-1" d="M47.15,40.61H13.22a1.54,1.54,0,0,1-1.5-1.91L13.4,32a1.54,1.54,0,0,1,1.5-1.17H44.63a1.54,1.54,0,0,1,1.44,1l2.52,6.74A1.54,1.54,0,0,1,47.15,40.61Z"/>
  <path id="icoCassette-innerRect" class="cls-1" d="M12.78,33.95H6.4a2.23,2.23,0,0,1-2.23-2.23V6.4A2.23,2.23,0,0,1,6.4,4.17H54A2.23,2.23,0,0,1,56.2,6.4V31.72A2.23,2.23,0,0,1,54,33.95H46.76"/>
  <path id="icoCassette-centerRect" class="cls-1" d="M37.76,22.13H22.61V18H37.76Z"/>
  <path id="icoCassette-rightCenterLine" class="cls-1" d="M49.52,20.06h6.79"/>
  <path id="icoCassette-leftCenterLine" class="cls-1" d="M4.27,20.06h6.79"/>
  <path id="icoCassette-centerOval" class="cls-1" d="M16.6,26.05a5.76,5.76,0,1,1,0-11.51H43.77a5.76,5.76,0,0,1,0,11.51Z"/>
  <path id="icoCassette-rightCircleOuter" class="cls-1" d="M46.47,20.29a2.88,2.88,0,1,1-2.88-2.88A2.88,2.88,0,0,1,46.47,20.29Z"/>
  <path id="icoCassette-leftCircleOuter" class="cls-1" d="M19.3,20.29a2.88,2.88,0,1,1-2.88-2.88A2.88,2.88,0,0,1,19.3,20.29Z"/>
  <path id="icoCassette-btmCircle4" class="cls-1" d="M43.31,35.63A1.27,1.27,0,1,1,42,36.9,1.27,1.27,0,0,1,43.31,35.63Z"/>
  <path id="icoCassette-btmCircle3" class="cls-1" d="M38.42,33.18a1.27,1.27,0,1,1-1.27,1.27A1.27,1.27,0,0,1,38.42,33.18Z"/>
  <path id="icoCassette-btmCircle2" class="cls-1" d="M22.58,34.45a1.27,1.27,0,1,1-1.27-1.27A1.27,1.27,0,0,1,22.58,34.45Z"/>
  <path id="icoCassette-btmCircle1" class="cls-1" d="M17.69,36.9a1.27,1.27,0,1,1-1.27-1.27A1.27,1.27,0,0,1,17.69,36.9Z"/>
  <g id="icoCassette-leftCircle">
    <path id="icoCassette-leftCircle4" class="cls-2" d="M14.38,18.26l1.48,1.48"/>
    <path id="icoCassette-leftCircle3" class="cls-2" d="M17,20.85l1.48,1.48"/>
    <path id="icoCassette-leftCircle2" class="cls-2" d="M17,19.74l1.48-1.48"/>
    <path id="icoCassette-leftCircle1" class="cls-2" d="M15.86,20.85l-1.48,1.48"/>
  </g>
  <g id="icoCassette-rightCircle">
    <path id="icoCassette-rightCircle4" class="cls-2" d="M41.56,18.26,43,19.74"/>
    <path id="icoCassette-rightCircle3" class="cls-2" d="M44.15,20.85l1.48,1.48"/>
    <path id="icoCassette-rightCircle2" class="cls-2" d="M44.15,19.74l1.48-1.48"/>
    <path id="icoCassette-rightCircle1" class="cls-2" d="M43,20.85l-1.48,1.48"/>
  </g>
  <path id="icoCassette-topline3" class="cls-2" d="M49.52,7.12h3.67"/>
  <path id="icoCassette-topline2" class="cls-2" d="M40.26,7.12h6.94"/>
  <path id="icoCassette-topline1" class="cls-2" d="M7.67,7.12H19.3"/>
  <path id="icoCassette-innerline4" class="cls-1" d="M34.82,22.13A8.84,8.84,0,0,1,34.94,18"/>
  <path id="icoCassette-innerline3" class="cls-1" d="M32.76,22.13A10.62,10.62,0,0,1,32.85,18"/>
  <path id="icoCassette-innerline2" class="cls-1" d="M27.17,18a10.61,10.61,0,0,1,.08,4.15"/>
  <path id="icoCassette-innerline1" class="cls-1" d="M25.07,18a8.83,8.83,0,0,1,.12,4.15"/>
</svg>
